<?xml version="1.0" standalone="no"?>
<!DOCTYPE svg PUBLIC "-//W3C//DTD SVG 20010904//EN"
 "http://www.w3.org/TR/2001/REC-SVG-20010904/DTD/svg10.dtd">
<svg version="1.0" xmlns="http://www.w3.org/2000/svg"
 width="41.000000pt" height="43.000000pt" viewBox="0 0 41.000000 43.000000"
 preserveAspectRatio="xMidYMid meet">

<g transform="translate(0.000000,43.000000) scale(0.100000,-0.100000)"
fill="#ffffff" stroke="none">
<path d="M0 215 l0 -215 205 0 205 0 0 215 0 215 -205 0 -205 0 0 -215z m192
8 l24 -78 23 78 c20 68 25 77 47 77 13 0 24 -3 24 -7 0 -4 -14 -51 -32 -105
-32 -96 -33 -98 -63 -98 -30 0 -31 2 -63 98 -18 54 -32 101 -32 105 0 4 11 7
24 7 22 0 27 -8 48 -77z"/>
</g>
</svg>
